<?xml version="1.0" encoding="UTF-8" standalone="no"?>
<!-- Created with Inkscape (http://www.inkscape.org/) -->

<svg
   width="77.212341mm"
   height="100.26491mm"
   viewBox="0 0 77.212341 100.26491"
   version="1.1"
   id="svg1"
   xmlns="http://www.w3.org/2000/svg"
   xmlns:svg="http://www.w3.org/2000/svg">
  <defs
     id="defs1" />
  <g
     id="layer1"
     transform="translate(-10.285671,-229.35483)">
    <rect
       style="display:none;fill:#0f284c;fill-opacity:0.398077;stroke:#0f284c;stroke-width:0.0839057;stroke-linecap:round;stroke-linejoin:round;stroke-miterlimit:0"
       id="rect5"
       width="99.916092"
       height="99.916092"
       x="0.93463105"
       y="229.68405" />
    <g
       id="g4"
       style="display:inline">
      <path
         id="path23"
         style="fill:none;stroke:#0f284c;stroke-width:3.91656;stroke-linecap:round;stroke-linejoin:round;stroke-miterlimit:0"
         d="M 50.674861,5.0626705 C 32.386096,4.6872738 15.372608,15.840816 8.8640904,34.311421 L 7.8437516,37.20711 C -0.48715219,60.8495 11.641916,87.262701 35.039107,96.42954 l 4.067481,1.593811 c 23.397192,9.166839 48.939876,-2.486956 57.27079,-26.129346 l 1.02034,-2.895679 C 105.72861,45.355936 93.599553,18.942724 70.202355,9.7758851 L 66.134875,8.1820745 C 61.016738,6.1768456 55.795716,5.167782 50.674861,5.0626705 Z" />
      <rect
         style="fill:none;stroke:#0f284c;stroke-width:3.07053;stroke-linecap:round;stroke-linejoin:round;stroke-miterlimit:0;stroke-dasharray:none;stroke-opacity:1"
         id="rect6"
         width="6.9749751"
         height="0.081560113"
         x="-0.97941059"
         y="-81.781677"
         transform="matrix(-0.60497551,0.79624408,-0.97856624,-0.20593232,0,0)" />
      <rect
         style="fill:none;stroke:#0f284c;stroke-width:3.49365;stroke-linecap:round;stroke-linejoin:round;stroke-miterlimit:0;stroke-dasharray:none;stroke-opacity:1"
         id="rect7"
         width="7.8745246"
         height="0.093525305"
         x="-1.286628"
         y="-73.588158"
         transform="matrix(-0.47218678,0.88149852,-0.98521631,-0.17131501,0,0)" />
      <rect
         style="fill:none;stroke:#0f284c;stroke-width:3.42181;stroke-linecap:round;stroke-linejoin:round;stroke-miterlimit:0;stroke-dasharray:none;stroke-opacity:1"
         id="rect8"
         width="7.2394309"
         height="0.097589388"
         x="-0.026793115"
         y="-66.047256"
         transform="matrix(-0.48976485,0.87185457,-0.99075466,-0.13566581,0,0)" />
      <rect
         style="fill:none;stroke:#0f284c;stroke-width:3.29886;stroke-linecap:round;stroke-linejoin:round;stroke-miterlimit:0;stroke-dasharray:none;stroke-opacity:1"
         id="rect9"
         width="5.9924421"
         height="0.10957712"
         x="3.0442884"
         y="-58.496101"
         transform="matrix(-0.4947227,0.86905089,-0.99727678,-0.07374972,0,0)" />
      <rect
         style="fill:#0f284c;fill-opacity:1;stroke:#0f284c;stroke-width:0.150971;stroke-linecap:round;stroke-linejoin:round;stroke-miterlimit:0;stroke-dasharray:none;stroke-opacity:1"
         id="rect12"
         width="4.5325356"
         height="2.916554"
         x="-86.94529"
         y="-79.649345"
         ry="1.3912801"
         rx="2.1919022"
         transform="matrix(-0.76421823,0.64495775,-0.23589233,-0.9717792,0,0)" />
      <rect
         style="fill:#0f284c;fill-opacity:1;stroke:#0f284c;stroke-width:0.094375;stroke-linecap:round;stroke-linejoin:round;stroke-miterlimit:0;stroke-dasharray:none;stroke-opacity:1"
         id="rect13"
         width="2.2535591"
         height="2.2922964"
         x="-13.997094"
         y="-55.512207"
         ry="1.0934913"
         rx="1.0898052"
         transform="matrix(-0.33270253,0.94303183,-0.93123931,-0.36440821,0,0)" />
      <rect
         style="fill:#0f284c;fill-opacity:1;stroke:#0f284c;stroke-width:0.0769242;stroke-linecap:round;stroke-linejoin:round;stroke-miterlimit:0;stroke-dasharray:none;stroke-opacity:1"
         id="rect14"
         width="1.7745868"
         height="1.9339848"
         x="51.184509"
         y="-98.580383"
         ry="0.92256624"
         rx="0.85817754"
         transform="matrix(-0.360468,0.93277158,-0.94171168,-0.33642104,0,0)" />
      <rect
         style="fill:#0f284c;fill-opacity:1;stroke:#0f284c;stroke-width:0.0683603;stroke-linecap:round;stroke-linejoin:round;stroke-miterlimit:0;stroke-dasharray:none;stroke-opacity:1"
         id="rect15"
         width="1.7363253"
         height="1.5609963"
         x="32.140442"
         y="-98.144226"
         ry="0.74464011"
         rx="0.83967465"
         transform="matrix(-0.28673126,0.95801106,-0.90805326,-0.41885471,0,0)" />
      <rect
         style="fill:#0f284c;fill-opacity:1;stroke:#0f284c;stroke-width:0.059537;stroke-linecap:round;stroke-linejoin:round;stroke-miterlimit:0;stroke-dasharray:none;stroke-opacity:1"
         id="rect16"
         width="1.3617017"
         height="1.5097952"
         x="48.788555"
         y="-104.91627"
         ry="0.72021568"
         rx="0.65850925"
         transform="matrix(-0.36765773,0.92996118,-0.94409279,-0.32967985,0,0)" />
      <rect
         style="fill:none;stroke:#0f284c;stroke-width:2.78912;stroke-linecap:round;stroke-linejoin:round;stroke-miterlimit:0;stroke-dasharray:none;stroke-opacity:1"
         id="rect17"
         width="7.2821989"
         height="0.064456195"
         x="-60.75769"
         y="82.296921"
         transform="matrix(0.90872994,-0.41738458,0.80923193,0.5874893,0,0)" />
      <rect
         style="fill:none;stroke:#0f284c;stroke-width:2.50481;stroke-linecap:round;stroke-linejoin:round;stroke-miterlimit:0;stroke-dasharray:none;stroke-opacity:1"
         id="rect18"
         width="6.0958843"
         height="0.062102482"
         x="-55.406013"
         y="77.501755"
         transform="matrix(0.82200881,-0.56947478,0.78650548,0.6175833,0,0)" />
      <rect
         style="fill:none;stroke:#0f284c;stroke-width:2.65613;stroke-linecap:round;stroke-linejoin:round;stroke-miterlimit:0;stroke-dasharray:none;stroke-opacity:1"
         id="rect19"
         width="5.9734788"
         height="0.071264148"
         x="-61.285294"
         y="88.918663"
         transform="matrix(0.83761328,-0.54626367,0.81337053,0.58174597,0,0)" />
      <rect
         style="fill:none;stroke:#0f284c;stroke-width:2.74207;stroke-linecap:round;stroke-linejoin:round;stroke-miterlimit:0;stroke-dasharray:none;stroke-opacity:1"
         id="rect20"
         width="5.3642993"
         height="0.084574841"
         x="-60.652016"
         y="91.616997"
         transform="matrix(0.79444269,-0.60733913,0.81431435,0.5804241,0,0)" />
      <rect
         style="fill:#0f284c;fill-opacity:1;stroke:#0f284c;stroke-width:0.143938;stroke-linecap:round;stroke-linejoin:round;stroke-miterlimit:0;stroke-dasharray:none;stroke-opacity:1"
         id="rect21"
         width="3.5567405"
         height="3.3785293"
         x="-73.94239"
         y="50.542675"
         ry="1.6116555"
         rx="1.7200146"
         transform="matrix(0.57267568,-0.81978202,0.98467254,0.17441328,0,0)" />
      <rect
         style="fill:#0f284c;fill-opacity:1;stroke:#0f284c;stroke-width:0.123172;stroke-linecap:round;stroke-linejoin:round;stroke-miterlimit:0;stroke-dasharray:none;stroke-opacity:1"
         id="rect22"
         width="2.8523717"
         height="3.0848649"
         x="67.507057"
         y="105.39311"
         ry="1.4715692"
         rx="1.3793868"
         transform="matrix(0.99379441,-0.1112325,-0.33868287,0.94090059,0,0)" />
      <text
         xml:space="preserve"
         style="font-style:normal;font-variant:normal;font-weight:bold;font-stretch:normal;font-size:28.4146px;line-height:24.8119px;font-family:'Atkinson Hyperlegible Mono';-inkscape-font-specification:'Atkinson Hyperlegible Mono Bold';letter-spacing:1.61608px;fill:#0f284c;fill-opacity:1;stroke:none;stroke-width:3.91538;stroke-linecap:round;stroke-linejoin:round;stroke-miterlimit:0;stroke-dasharray:none;stroke-opacity:1"
         x="32.814617"
         y="72.826019"
         id="text26"><tspan
           style="font-style:normal;font-variant:normal;font-weight:bold;font-stretch:normal;font-size:56.8291px;line-height:24.8119px;font-family:'Atkinson Hyperlegible Mono';-inkscape-font-specification:'Atkinson Hyperlegible Mono Bold';fill:#0f284c;fill-opacity:1;stroke:none;stroke-width:3.91539"
           x="32.814617"
           y="72.826019"
           id="tspan1">i</tspan><tspan
           style="font-style:normal;font-variant:normal;font-weight:bold;font-stretch:normal;font-size:28.4146px;line-height:24.8119px;font-family:'Atkinson Hyperlegible Mono';-inkscape-font-specification:'Atkinson Hyperlegible Mono Bold';fill:#0f284c;fill-opacity:1;stroke:none;stroke-width:3.91539"
           x="32.814617"
           y="97.637917"
           id="tspan27" /></text>
      <rect
         style="fill:#0f284c;fill-opacity:1;stroke:#0f284c;stroke-width:0.0769242;stroke-linecap:round;stroke-linejoin:round;stroke-miterlimit:0;stroke-dasharray:none;stroke-opacity:1"
         id="rect26"
         width="1.7745868"
         height="1.9339848"
         x="51.184509"
         y="-98.580383"
         ry="0.92256624"
         rx="0.85817754"
         transform="matrix(-0.360468,0.93277158,-0.94171168,-0.33642104,0,0)" />
      <rect
         style="fill:#0f284c;fill-opacity:1;stroke:#0f284c;stroke-width:0.0683603;stroke-linecap:round;stroke-linejoin:round;stroke-miterlimit:0;stroke-dasharray:none;stroke-opacity:1"
         id="rect27"
         width="1.7363253"
         height="1.5609963"
         x="32.140442"
         y="-98.144226"
         ry="0.74464011"
         rx="0.83967465"
         transform="matrix(-0.28673126,0.95801106,-0.90805326,-0.41885471,0,0)" />
      <rect
         style="fill:#0f284c;fill-opacity:1;stroke:#0f284c;stroke-width:0.059537;stroke-linecap:round;stroke-linejoin:round;stroke-miterlimit:0;stroke-dasharray:none;stroke-opacity:1"
         id="rect28"
         width="1.3617017"
         height="1.5097952"
         x="48.788555"
         y="-104.91627"
         ry="0.72021568"
         rx="0.65850925"
         transform="matrix(-0.36765773,0.92996118,-0.94409279,-0.32967985,0,0)" />
      <rect
         style="fill:#0f284c;fill-opacity:1;stroke:#0f284c;stroke-width:0.0767552;stroke-linecap:round;stroke-linejoin:round;stroke-miterlimit:0;stroke-dasharray:none;stroke-opacity:1"
         id="rect46"
         width="1.660048"
         height="2.0583508"
         x="237.31425"
         y="-277.46286"
         ry="0.98189241"
         rx="0.80278742"
         transform="matrix(-0.41703546,0.90889022,-0.95759372,-0.28812195,0,0)" />
      <rect
         style="fill:#0f284c;fill-opacity:1;stroke:#0f284c;stroke-width:0.0683603;stroke-linecap:round;stroke-linejoin:round;stroke-miterlimit:0;stroke-dasharray:none;stroke-opacity:1"
         id="rect47"
         width="1.7363253"
         height="1.5609963"
         x="186.33391"
         y="-250.10472"
         ry="0.74464011"
         rx="0.83967465"
         transform="matrix(-0.28673126,0.95801106,-0.90805326,-0.41885471,0,0)" />
      <rect
         style="fill:#0f284c;fill-opacity:1;stroke:#0f284c;stroke-width:0.059537;stroke-linecap:round;stroke-linejoin:round;stroke-miterlimit:0;stroke-dasharray:none;stroke-opacity:1"
         id="rect48"
         width="1.3617017"
         height="1.5097952"
         x="225.97746"
         y="-267.35837"
         ry="0.72021568"
         rx="0.65850925"
         transform="matrix(-0.36765773,0.92996118,-0.94409279,-0.32967985,0,0)" />
    </g>
    <g
       id="g7"
       transform="matrix(1.0018758,0,0,1.0018758,-36.982417,28.454631)">
      <path
         id="path54"
         style="fill:none;stroke:#0f284c;stroke-width:5.4897;stroke-linecap:round;stroke-linejoin:round;stroke-miterlimit:0;stroke-dasharray:none"
         d="m 88.693714,88.055616 -2.054324,5.50847 -2.983633,-5.50144 c -4.34498,0.27002 -8.582501,1.17734 -12.590792,2.66898 l 2.537144,12.071054 c -4.785791,1.20089 -6.272548,1.77508 -10.561077,5.07077 l -6.171175,-8.467494 c -5.24119,4.787714 -9.435192,10.931844 -12.002503,18.217624 l -1.014856,2.87934 9.774738,4.16314 c -2.278088,4.56261 -2.790495,9.39636 -2.510775,13.30388 l -9.891927,0.19278 c 0.34701,7.98679 2.718051,15.74294 6.773526,22.53428 l 8.936837,-3.31997 c 1.784534,4.12195 4.547568,8.2794 8.337414,11.03804 l -4.916666,5.98778 c 3.326379,2.49233 7.00817,4.60181 11.042137,6.18231 l 4.122711,1.61545 c 3.312233,1.29763 6.666084,2.16906 10.009702,2.6678 l 1.467793,-10.03783 c 4.992265,1.04112 9.797376,0.30576 13.504862,-0.95978 l 2.84828,10.02143 c 8.66951,-2.30205 16.49772,-7.24649 22.3626,-14.29824 l -5.61452,-4.96998 c 3.60469,-3.60736 5.62023,-8.03083 6.59129,-11.82614 l 7.12334,2.22309 0.78927,-2.23949 c 2.20784,-6.26566 2.98541,-12.7216 2.52425,-19.00865 l -7.72158,0.71309 c -0.16126,-5.0971 -2.00494,-9.59448 -4.10631,-12.90076 l 7.59385,-4.28911 c -3.71138,-8.09655 -9.66303,-15.17097 -17.36624,-20.175864 l -5.84715,8.237814 c -4.34897,-2.47064 -8.97143,-4.25042 -12.676342,-5.18913 l 1.99866,-10.367714 c -3.433581,-1.0068 -6.887773,-1.56343 -10.308534,-1.74553 z" />
      <path
         id="path55"
         style="fill:none;stroke:#0f284c;stroke-width:5.4897;stroke-linecap:round;stroke-linejoin:round;stroke-miterlimit:0;stroke-dasharray:none;stroke-opacity:1"
         d="m 89.679354,117.32465 c -7.967016,-0.16072 -15.378495,4.61451 -18.213758,12.52244 l -0.444483,1.23974 c -3.629138,10.12216 1.654569,21.4306 11.846938,25.35525 l 1.771892,0.68236 c 10.192368,3.92465 21.319367,-1.06475 24.948507,-11.18691 l 0.44449,-1.23974 c 3.62913,-10.12214 -1.65458,-21.43059 -11.846946,-25.35524 l -1.771891,-0.68237 c -2.229583,-0.85851 -4.503983,-1.29053 -6.734749,-1.33553 z" />
      <path
         style="fill:none;fill-opacity:1;stroke:#0f284c;stroke-width:3.40162;stroke-linecap:round;stroke-linejoin:round;stroke-miterlimit:0;stroke-dasharray:none;stroke-opacity:1"
         d="M 83.421277,118.21022 83.068218,112.4436"
         id="path63" />
      <path
         style="fill:none;fill-opacity:1;stroke:#0f284c;stroke-width:3.40162;stroke-linecap:round;stroke-linejoin:round;stroke-miterlimit:0;stroke-dasharray:none;stroke-opacity:1"
         d="m 89.658641,116.56261 0.117686,-7.53191"
         id="path64" />
      <path
         style="fill:none;fill-opacity:1;stroke:#0f284c;stroke-width:3.40162;stroke-linecap:round;stroke-linejoin:round;stroke-miterlimit:0;stroke-dasharray:none;stroke-opacity:1"
         d="m 106.37007,123.97683 4.58976,-3.17752"
         id="path65" />
      <path
         style="fill:none;fill-opacity:1;stroke:#0f284c;stroke-width:3.40162;stroke-linecap:round;stroke-linejoin:round;stroke-miterlimit:0;stroke-dasharray:none;stroke-opacity:1"
         d="m 110.84215,130.33189 2.82447,-1.64761"
         id="path66" />
      <path
         style="fill:none;fill-opacity:1;stroke:#0f284c;stroke-width:3.40162;stroke-linecap:round;stroke-linejoin:round;stroke-miterlimit:0;stroke-dasharray:none;stroke-opacity:1"
         d="m 78.746253,154.50915 -1.419312,4.86622"
         id="path67" />
      <path
         style="fill:none;fill-opacity:1;stroke:#0f284c;stroke-width:3.40162;stroke-linecap:round;stroke-linejoin:round;stroke-miterlimit:0;stroke-dasharray:none;stroke-opacity:1"
         d="m 85.021439,157.12431 -2.027592,7.29935"
         id="path68" />
      <path
         style="fill:none;fill-opacity:1;stroke:#0f284c;stroke-width:3.40162;stroke-linecap:round;stroke-linejoin:round;stroke-miterlimit:0;stroke-dasharray:none;stroke-opacity:1"
         d="m 45.96285,155.55549 5.272946,-1.75765"
         id="path69" />
      <path
         style="fill:none;fill-opacity:1;stroke:#0f284c;stroke-width:2.13774;stroke-linecap:round;stroke-linejoin:round;stroke-miterlimit:0;stroke-dasharray:none;stroke-opacity:1"
         id="path70"
         d="m 70.044555,165.10324 a 0.10996989,0.27199474 0 0 1 -0.109914,0.272 0.10996989,0.27199474 0 0 1 -0.110025,-0.27172 0.10996989,0.27199474 0 0 1 0.109802,-0.27227 0.10996989,0.27199474 0 0 1 0.110137,0.27144" />
      <path
         style="fill:none;fill-opacity:1;stroke:#0f284c;stroke-width:2.25271;stroke-linecap:round;stroke-linejoin:round;stroke-miterlimit:0;stroke-dasharray:none;stroke-opacity:1"
         id="path71"
         d="m 114.28124,133.58147 a 0.21478419,0.21478419 0 0 1 -0.21467,0.21478 0.21478419,0.21478419 0 0 1 -0.21489,-0.21457 0.21478419,0.21478419 0 0 1 0.21445,-0.215 0.21478419,0.21478419 0 0 1 0.21511,0.21435" />
      <path
         style="fill:none;fill-opacity:1;stroke:#0f284c;stroke-width:2.13774;stroke-linecap:round;stroke-linejoin:round;stroke-miterlimit:0;stroke-dasharray:none;stroke-opacity:1"
         id="path72"
         d="m 45.769775,151.04941 a 0.10996989,0.27199474 0 0 1 -0.109914,0.27199 0.10996989,0.27199474 0 0 1 -0.110026,-0.27172 0.10996989,0.27199474 0 0 1 0.109803,-0.27227 0.10996989,0.27199474 0 0 1 0.110137,0.27145" />
      <path
         style="fill:none;fill-opacity:1;stroke:#0f284c;stroke-width:2.13774;stroke-linecap:round;stroke-linejoin:round;stroke-miterlimit:0;stroke-dasharray:none;stroke-opacity:1"
         id="path73"
         d="m 65.664146,144.66132 a 0.10996989,0.27199474 0 0 1 -0.109914,0.27199 0.10996989,0.27199474 0 0 1 -0.110026,-0.27172 0.10996989,0.27199474 0 0 1 0.109803,-0.27227 0.10996989,0.27199474 0 0 1 0.110137,0.27144" />
      <path
         style="fill:none;fill-opacity:1;stroke:#0f284c;stroke-width:2.13774;stroke-linecap:round;stroke-linejoin:round;stroke-miterlimit:0;stroke-dasharray:none;stroke-opacity:1"
         id="path74"
         d="m 86.836136,116.18864 a 0.10996989,0.27199474 0 0 1 -0.109914,0.27199 0.10996989,0.27199474 0 0 1 -0.110026,-0.27172 0.10996989,0.27199474 0 0 1 0.109802,-0.27227 0.10996989,0.27199474 0 0 1 0.110137,0.27145" />
      <path
         style="fill:none;fill-opacity:1;stroke:#0f284c;stroke-width:1.24551;stroke-linecap:round;stroke-linejoin:round;stroke-miterlimit:0;stroke-dasharray:none;stroke-opacity:1"
         id="path75"
         d="m 63.155207,142.32887 a 0.06481413,0.15665765 0 0 1 -0.06478,0.15666 0.06481413,0.15665765 0 0 1 -0.06485,-0.1565 0.06481413,0.15665765 0 0 1 0.06471,-0.15681 0.06481413,0.15665765 0 0 1 0.06491,0.15633" />
      <path
         style="fill:none;fill-opacity:1;stroke:#0f284c;stroke-width:1.04773;stroke-linecap:round;stroke-linejoin:round;stroke-miterlimit:0;stroke-dasharray:none;stroke-opacity:1"
         id="path76"
         d="m 63.191361,146.54243 a 0.05571452,0.12896006 0 0 1 -0.05569,0.12896 0.05571452,0.12896006 0 0 1 -0.05574,-0.12882 0.05571452,0.12896006 0 0 1 0.05563,-0.1291 0.05571452,0.12896006 0 0 1 0.0558,0.1287" />
      <path
         style="fill:none;fill-opacity:1;stroke:#0f284c;stroke-width:1.04773;stroke-linecap:round;stroke-linejoin:round;stroke-miterlimit:0;stroke-dasharray:none;stroke-opacity:1"
         id="path77"
         d="m 71.231076,162.62186 a 0.05571452,0.12896006 0 0 1 -0.05569,0.12896 0.05571452,0.12896006 0 0 1 -0.05574,-0.12883 0.05571452,0.12896006 0 0 1 0.05563,-0.12909 0.05571452,0.12896006 0 0 1 0.0558,0.1287" />
      <path
         style="fill:none;fill-opacity:1;stroke:#0f284c;stroke-width:1.24551;stroke-linecap:round;stroke-linejoin:round;stroke-miterlimit:0;stroke-dasharray:none;stroke-opacity:1"
         id="path78"
         d="m 116.28035,130.94492 a 0.06481413,0.15665765 0 0 1 -0.0648,0.15665 0.06481413,0.15665765 0 0 1 -0.0648,-0.1565 0.06481413,0.15665765 0 0 1 0.0647,-0.15681 0.06481413,0.15665765 0 0 1 0.0649,0.15634" />
      <path
         id="rect10"
         style="fill:none;fill-opacity:0.398077;stroke:#0f284c;stroke-width:5.75146;stroke-linecap:round;stroke-linejoin:round;stroke-miterlimit:0;stroke-dasharray:none"
         d="m 101.48464,203.39972 -15.067946,68.88996 -28.609593,-29.13465 -7.751826,22.27973 30.964106,31.53228 -0.165648,0.75847 21.053247,-10e-6 19.46471,-88.99166 z" />
      <path
         style="fill:none;fill-opacity:0.398077;stroke:#0f284c;stroke-width:2.99438;stroke-linecap:round;stroke-linejoin:round;stroke-miterlimit:0;stroke-dasharray:none"
         d="m 62.362157,264.05335 -3.963366,8.34391"
         id="path11" />
      <path
         style="fill:none;fill-opacity:0.398077;stroke:#0f284c;stroke-width:2.99439;stroke-linecap:round;stroke-linejoin:round;stroke-miterlimit:0;stroke-dasharray:none"
         d="M 99.284041,294.71729 95.73787,288.45933"
         id="path12" />
      <path
         style="fill:none;fill-opacity:0.398077;stroke:#0f284c;stroke-width:2.99439;stroke-linecap:round;stroke-linejoin:round;stroke-miterlimit:0;stroke-dasharray:none"
         d="m 64.375539,270.20839 -2.201625,4.51913"
         id="path13" />
      <path
         style="fill:none;fill-opacity:0.398077;stroke:#0f284c;stroke-width:2.99439;stroke-linecap:round;stroke-linejoin:round;stroke-miterlimit:0;stroke-dasharray:none"
         d="m 102.0349,209.95342 6.37312,1.62225"
         id="path14" />
      <path
         style="fill:none;fill-opacity:0.398077;stroke:#0f284c;stroke-width:2.99439;stroke-linecap:round;stroke-linejoin:round;stroke-miterlimit:0;stroke-dasharray:none"
         d="m 100.29677,215.28367 3.2445,0.81112"
         id="path15" />
      <path
         style="fill:none;fill-opacity:1;stroke:#0f284c;stroke-width:2.13774;stroke-linecap:round;stroke-linejoin:round;stroke-miterlimit:0;stroke-dasharray:none;stroke-opacity:1"
         id="path16"
         d="m 108.34754,242.35886 a 0.10996989,0.27199474 0 0 1 -0.10991,0.27199 0.10996989,0.27199474 0 0 1 -0.11003,-0.27172 0.10996989,0.27199474 0 0 1 0.1098,-0.27227 0.10996989,0.27199474 0 0 1 0.11014,0.27144" />
      <path
         style="fill:none;fill-opacity:1;stroke:#0f284c;stroke-width:1.24551;stroke-linecap:round;stroke-linejoin:round;stroke-miterlimit:0;stroke-dasharray:none;stroke-opacity:1"
         id="path17"
         d="m 105.8386,240.02641 a 0.06481413,0.15665765 0 0 1 -0.0648,0.15666 0.06481413,0.15665765 0 0 1 -0.0649,-0.1565 0.06481413,0.15665765 0 0 1 0.0647,-0.15681 0.06481413,0.15665765 0 0 1 0.0649,0.15634" />
      <path
         style="fill:none;fill-opacity:1;stroke:#0f284c;stroke-width:1.04773;stroke-linecap:round;stroke-linejoin:round;stroke-miterlimit:0;stroke-dasharray:none;stroke-opacity:1"
         id="path18"
         d="m 105.87475,244.23997 a 0.05571452,0.12896006 0 0 1 -0.0557,0.12897 0.05571452,0.12896006 0 0 1 -0.0558,-0.12883 0.05571452,0.12896006 0 0 1 0.0556,-0.12909 0.05571452,0.12896006 0 0 1 0.0558,0.12869" />
      <path
         style="fill:none;fill-opacity:1;stroke:#0f284c;stroke-width:2.13774;stroke-linecap:round;stroke-linejoin:round;stroke-miterlimit:0;stroke-dasharray:none;stroke-opacity:1"
         id="path19"
         d="m 84.341842,289.89645 a 0.10996989,0.27199474 0 0 1 -0.109914,0.272 0.10996989,0.27199474 0 0 1 -0.110025,-0.27172 0.10996989,0.27199474 0 0 1 0.109802,-0.27227 0.10996989,0.27199474 0 0 1 0.110137,0.27144" />
      <path
         style="fill:none;fill-opacity:1;stroke:#0f284c;stroke-width:1.04773;stroke-linecap:round;stroke-linejoin:round;stroke-miterlimit:0;stroke-dasharray:none;stroke-opacity:1"
         id="path20"
         d="m 82.342854,286.72375 a 0.05571452,0.12896006 0 0 1 -0.05569,0.12896 0.05571452,0.12896006 0 0 1 -0.05574,-0.12882 0.05571452,0.12896006 0 0 1 0.05563,-0.1291 0.05571452,0.12896006 0 0 1 0.0558,0.1287" />
    </g>
  </g>
</svg>
