<?xml version="1.0" encoding="UTF-8" standalone="no"?>
<!-- Created with Inkscape (http://www.inkscape.org/) -->

<svg
   width="99.702492mm"
   height="99.767647mm"
   viewBox="0 0 99.702492 99.767647"
   version="1.1"
   id="svg1"
   xmlns="http://www.w3.org/2000/svg"
   xmlns:svg="http://www.w3.org/2000/svg">
  <defs
     id="defs1" />
  <g
     id="layer1"
     transform="translate(-109.70108,-230.10979)">
    <rect
       style="display:none;fill:#0f284c;fill-opacity:0.398077;stroke:#0f284c;stroke-width:0.0839057;stroke-linecap:round;stroke-linejoin:round;stroke-miterlimit:0"
       id="rect23"
       width="99.916092"
       height="99.916092"
       x="109.46369"
       y="230.02216" />
    <g
       id="g4"
       style="display:inline">
      <path
         id="path23"
         style="fill:none;stroke:#0f284c;stroke-width:3.91656;stroke-linecap:round;stroke-linejoin:round;stroke-miterlimit:0"
         d="M 50.674861,5.0626705 C 32.386096,4.6872738 15.372608,15.840816 8.8640904,34.311421 L 7.8437516,37.20711 C -0.48715219,60.8495 11.641916,87.262701 35.039107,96.42954 l 4.067481,1.593811 c 23.397192,9.166839 48.939876,-2.486956 57.27079,-26.129346 l 1.02034,-2.895679 C 105.72861,45.355936 93.599553,18.942724 70.202355,9.7758851 L 66.134875,8.1820745 C 61.016738,6.1768456 55.795716,5.167782 50.674861,5.0626705 Z" />
      <rect
         style="fill:none;stroke:#0f284c;stroke-width:3.07053;stroke-linecap:round;stroke-linejoin:round;stroke-miterlimit:0;stroke-dasharray:none;stroke-opacity:1"
         id="rect6"
         width="6.9749751"
         height="0.081560113"
         x="-0.97941059"
         y="-81.781677"
         transform="matrix(-0.60497551,0.79624408,-0.97856624,-0.20593232,0,0)" />
      <rect
         style="fill:none;stroke:#0f284c;stroke-width:3.49365;stroke-linecap:round;stroke-linejoin:round;stroke-miterlimit:0;stroke-dasharray:none;stroke-opacity:1"
         id="rect7"
         width="7.8745246"
         height="0.093525305"
         x="-1.286628"
         y="-73.588158"
         transform="matrix(-0.47218678,0.88149852,-0.98521631,-0.17131501,0,0)" />
      <rect
         style="fill:none;stroke:#0f284c;stroke-width:3.42181;stroke-linecap:round;stroke-linejoin:round;stroke-miterlimit:0;stroke-dasharray:none;stroke-opacity:1"
         id="rect8"
         width="7.2394309"
         height="0.097589388"
         x="-0.026793115"
         y="-66.047256"
         transform="matrix(-0.48976485,0.87185457,-0.99075466,-0.13566581,0,0)" />
      <rect
         style="fill:none;stroke:#0f284c;stroke-width:3.29886;stroke-linecap:round;stroke-linejoin:round;stroke-miterlimit:0;stroke-dasharray:none;stroke-opacity:1"
         id="rect9"
         width="5.9924421"
         height="0.10957712"
         x="3.0442884"
         y="-58.496101"
         transform="matrix(-0.4947227,0.86905089,-0.99727678,-0.07374972,0,0)" />
      <rect
         style="fill:#0f284c;fill-opacity:1;stroke:#0f284c;stroke-width:0.150971;stroke-linecap:round;stroke-linejoin:round;stroke-miterlimit:0;stroke-dasharray:none;stroke-opacity:1"
         id="rect12"
         width="4.5325356"
         height="2.916554"
         x="-86.94529"
         y="-79.649345"
         ry="1.3912801"
         rx="2.1919022"
         transform="matrix(-0.76421823,0.64495775,-0.23589233,-0.9717792,0,0)" />
      <rect
         style="fill:#0f284c;fill-opacity:1;stroke:#0f284c;stroke-width:0.094375;stroke-linecap:round;stroke-linejoin:round;stroke-miterlimit:0;stroke-dasharray:none;stroke-opacity:1"
         id="rect13"
         width="2.2535591"
         height="2.2922964"
         x="-13.997094"
         y="-55.512207"
         ry="1.0934913"
         rx="1.0898052"
         transform="matrix(-0.33270253,0.94303183,-0.93123931,-0.36440821,0,0)" />
      <rect
         style="fill:#0f284c;fill-opacity:1;stroke:#0f284c;stroke-width:0.0769242;stroke-linecap:round;stroke-linejoin:round;stroke-miterlimit:0;stroke-dasharray:none;stroke-opacity:1"
         id="rect14"
         width="1.7745868"
         height="1.9339848"
         x="51.184509"
         y="-98.580383"
         ry="0.92256624"
         rx="0.85817754"
         transform="matrix(-0.360468,0.93277158,-0.94171168,-0.33642104,0,0)" />
      <rect
         style="fill:#0f284c;fill-opacity:1;stroke:#0f284c;stroke-width:0.0683603;stroke-linecap:round;stroke-linejoin:round;stroke-miterlimit:0;stroke-dasharray:none;stroke-opacity:1"
         id="rect15"
         width="1.7363253"
         height="1.5609963"
         x="32.140442"
         y="-98.144226"
         ry="0.74464011"
         rx="0.83967465"
         transform="matrix(-0.28673126,0.95801106,-0.90805326,-0.41885471,0,0)" />
      <rect
         style="fill:#0f284c;fill-opacity:1;stroke:#0f284c;stroke-width:0.059537;stroke-linecap:round;stroke-linejoin:round;stroke-miterlimit:0;stroke-dasharray:none;stroke-opacity:1"
         id="rect16"
         width="1.3617017"
         height="1.5097952"
         x="48.788555"
         y="-104.91627"
         ry="0.72021568"
         rx="0.65850925"
         transform="matrix(-0.36765773,0.92996118,-0.94409279,-0.32967985,0,0)" />
      <rect
         style="fill:none;stroke:#0f284c;stroke-width:2.78912;stroke-linecap:round;stroke-linejoin:round;stroke-miterlimit:0;stroke-dasharray:none;stroke-opacity:1"
         id="rect17"
         width="7.2821989"
         height="0.064456195"
         x="-60.75769"
         y="82.296921"
         transform="matrix(0.90872994,-0.41738458,0.80923193,0.5874893,0,0)" />
      <rect
         style="fill:none;stroke:#0f284c;stroke-width:2.50481;stroke-linecap:round;stroke-linejoin:round;stroke-miterlimit:0;stroke-dasharray:none;stroke-opacity:1"
         id="rect18"
         width="6.0958843"
         height="0.062102482"
         x="-55.406013"
         y="77.501755"
         transform="matrix(0.82200881,-0.56947478,0.78650548,0.6175833,0,0)" />
      <rect
         style="fill:none;stroke:#0f284c;stroke-width:2.65613;stroke-linecap:round;stroke-linejoin:round;stroke-miterlimit:0;stroke-dasharray:none;stroke-opacity:1"
         id="rect19"
         width="5.9734788"
         height="0.071264148"
         x="-61.285294"
         y="88.918663"
         transform="matrix(0.83761328,-0.54626367,0.81337053,0.58174597,0,0)" />
      <rect
         style="fill:none;stroke:#0f284c;stroke-width:2.74207;stroke-linecap:round;stroke-linejoin:round;stroke-miterlimit:0;stroke-dasharray:none;stroke-opacity:1"
         id="rect20"
         width="5.3642993"
         height="0.084574841"
         x="-60.652016"
         y="91.616997"
         transform="matrix(0.79444269,-0.60733913,0.81431435,0.5804241,0,0)" />
      <rect
         style="fill:#0f284c;fill-opacity:1;stroke:#0f284c;stroke-width:0.143938;stroke-linecap:round;stroke-linejoin:round;stroke-miterlimit:0;stroke-dasharray:none;stroke-opacity:1"
         id="rect21"
         width="3.5567405"
         height="3.3785293"
         x="-73.94239"
         y="50.542675"
         ry="1.6116555"
         rx="1.7200146"
         transform="matrix(0.57267568,-0.81978202,0.98467254,0.17441328,0,0)" />
      <rect
         style="fill:#0f284c;fill-opacity:1;stroke:#0f284c;stroke-width:0.123172;stroke-linecap:round;stroke-linejoin:round;stroke-miterlimit:0;stroke-dasharray:none;stroke-opacity:1"
         id="rect22"
         width="2.8523717"
         height="3.0848649"
         x="67.507057"
         y="105.39311"
         ry="1.4715692"
         rx="1.3793868"
         transform="matrix(0.99379441,-0.1112325,-0.33868287,0.94090059,0,0)" />
      <text
         xml:space="preserve"
         style="font-style:normal;font-variant:normal;font-weight:bold;font-stretch:normal;font-size:28.4146px;line-height:24.8119px;font-family:'Atkinson Hyperlegible Mono';-inkscape-font-specification:'Atkinson Hyperlegible Mono Bold';letter-spacing:1.61608px;fill:#0f284c;fill-opacity:1;stroke:none;stroke-width:3.91538;stroke-linecap:round;stroke-linejoin:round;stroke-miterlimit:0;stroke-dasharray:none;stroke-opacity:1"
         x="32.814617"
         y="72.826019"
         id="text26"><tspan
           style="font-style:normal;font-variant:normal;font-weight:bold;font-stretch:normal;font-size:56.8291px;line-height:24.8119px;font-family:'Atkinson Hyperlegible Mono';-inkscape-font-specification:'Atkinson Hyperlegible Mono Bold';fill:#0f284c;fill-opacity:1;stroke:none;stroke-width:3.91539"
           x="32.814617"
           y="72.826019"
           id="tspan1">i</tspan><tspan
           style="font-style:normal;font-variant:normal;font-weight:bold;font-stretch:normal;font-size:28.4146px;line-height:24.8119px;font-family:'Atkinson Hyperlegible Mono';-inkscape-font-specification:'Atkinson Hyperlegible Mono Bold';fill:#0f284c;fill-opacity:1;stroke:none;stroke-width:3.91539"
           x="32.814617"
           y="97.637917"
           id="tspan27" /></text>
      <rect
         style="fill:#0f284c;fill-opacity:1;stroke:#0f284c;stroke-width:0.0769242;stroke-linecap:round;stroke-linejoin:round;stroke-miterlimit:0;stroke-dasharray:none;stroke-opacity:1"
         id="rect26"
         width="1.7745868"
         height="1.9339848"
         x="51.184509"
         y="-98.580383"
         ry="0.92256624"
         rx="0.85817754"
         transform="matrix(-0.360468,0.93277158,-0.94171168,-0.33642104,0,0)" />
      <rect
         style="fill:#0f284c;fill-opacity:1;stroke:#0f284c;stroke-width:0.0683603;stroke-linecap:round;stroke-linejoin:round;stroke-miterlimit:0;stroke-dasharray:none;stroke-opacity:1"
         id="rect27"
         width="1.7363253"
         height="1.5609963"
         x="32.140442"
         y="-98.144226"
         ry="0.74464011"
         rx="0.83967465"
         transform="matrix(-0.28673126,0.95801106,-0.90805326,-0.41885471,0,0)" />
      <rect
         style="fill:#0f284c;fill-opacity:1;stroke:#0f284c;stroke-width:0.059537;stroke-linecap:round;stroke-linejoin:round;stroke-miterlimit:0;stroke-dasharray:none;stroke-opacity:1"
         id="rect28"
         width="1.3617017"
         height="1.5097952"
         x="48.788555"
         y="-104.91627"
         ry="0.72021568"
         rx="0.65850925"
         transform="matrix(-0.36765773,0.92996118,-0.94409279,-0.32967985,0,0)" />
      <rect
         style="fill:#0f284c;fill-opacity:1;stroke:#0f284c;stroke-width:0.0767552;stroke-linecap:round;stroke-linejoin:round;stroke-miterlimit:0;stroke-dasharray:none;stroke-opacity:1"
         id="rect46"
         width="1.660048"
         height="2.0583508"
         x="237.31425"
         y="-277.46286"
         ry="0.98189241"
         rx="0.80278742"
         transform="matrix(-0.41703546,0.90889022,-0.95759372,-0.28812195,0,0)" />
      <rect
         style="fill:#0f284c;fill-opacity:1;stroke:#0f284c;stroke-width:0.0683603;stroke-linecap:round;stroke-linejoin:round;stroke-miterlimit:0;stroke-dasharray:none;stroke-opacity:1"
         id="rect47"
         width="1.7363253"
         height="1.5609963"
         x="186.33391"
         y="-250.10472"
         ry="0.74464011"
         rx="0.83967465"
         transform="matrix(-0.28673126,0.95801106,-0.90805326,-0.41885471,0,0)" />
      <rect
         style="fill:#0f284c;fill-opacity:1;stroke:#0f284c;stroke-width:0.059537;stroke-linecap:round;stroke-linejoin:round;stroke-miterlimit:0;stroke-dasharray:none;stroke-opacity:1"
         id="rect48"
         width="1.3617017"
         height="1.5097952"
         x="225.97746"
         y="-267.35837"
         ry="0.72021568"
         rx="0.65850925"
         transform="matrix(-0.36765773,0.92996118,-0.94409279,-0.32967985,0,0)" />
    </g>
    <g
       id="g6"
       transform="matrix(0.78213295,0,0,0.78213295,17.822109,78.382697)">
      <path
         id="path79"
         style="fill:none;fill-opacity:1;stroke:#0f284c;stroke-width:7.03205;stroke-linecap:round;stroke-linejoin:round;stroke-miterlimit:0;stroke-dasharray:none;stroke-opacity:1"
         d="m 142.99867,57.540396 a 37.973245,59.123354 0 0 0 24.29075,53.625974 c 0.97623,9.24803 1.42148,18.53691 1.06229,27.88766 h -9.23476 v 17.15392 a 38.727282,34.898729 0 0 0 -13.4387,16.56733 h 73.07108 a 38.727282,34.898729 0 0 0 -15.14765,-17.64015 v -16.0811 h -10.30636 c -0.67982,-9.18087 -0.42181,-18.30285 0.45279,-27.38656 a 37.973245,59.123354 0 0 0 25.07678,-54.127074 z" />
      <rect
         style="fill:none;fill-opacity:1;stroke:#0f284c;stroke-width:7.03205;stroke-linecap:round;stroke-linejoin:round;stroke-miterlimit:0;stroke-dasharray:none;stroke-opacity:1"
         id="rect82"
         width="88.258812"
         height="9.0119295"
         x="136.84653"
         y="48.559605"
         ry="4.5059648"
         rx="6.4962125" />
      <path
         style="fill:none;fill-opacity:1;stroke:#0f284c;stroke-width:7.03205;stroke-linecap:round;stroke-linejoin:round;stroke-miterlimit:0;stroke-dasharray:none;stroke-opacity:1"
         d="m 143.48679,65.818826 c -11.38291,-7.876858 -21.2536,30.20805 11.7361,35.061614"
         id="path83" />
      <path
         style="fill:none;fill-opacity:1;stroke:#0f284c;stroke-width:7.03205;stroke-linecap:round;stroke-linejoin:round;stroke-miterlimit:0;stroke-dasharray:none;stroke-opacity:1"
         d="m 159.44637,156.11709 44.55027,-0.25648"
         id="path84" />
      <path
         style="fill:none;fill-opacity:1;stroke:#0f284c;stroke-width:7.03205;stroke-linecap:round;stroke-linejoin:round;stroke-miterlimit:0;stroke-dasharray:none;stroke-opacity:1"
         d="m 167.5991,139.00499 28.91752,0.13502"
         id="path85" />
      <text
         xml:space="preserve"
         style="font-style:normal;font-variant:normal;font-weight:bold;font-stretch:normal;font-size:46.3966px;line-height:40.514px;font-family:'Atkinson Hyperlegible Mono';-inkscape-font-specification:'Atkinson Hyperlegible Mono Bold';letter-spacing:1.3194px;fill:#0f284c;fill-opacity:1;stroke:#0f284c;stroke-width:2.73996;stroke-linecap:round;stroke-linejoin:round;stroke-miterlimit:0;stroke-dasharray:none;stroke-opacity:1"
         x="173.80046"
         y="95.311699"
         id="text85"
         transform="scale(0.96137336,1.0401786)"><tspan
           id="tspan85"
           style="fill:#0f284c;fill-opacity:1;stroke-width:2.73996"
           x="173.80046"
           y="95.311699">1</tspan></text>
      <path
         style="fill:#0f284c;fill-opacity:1;stroke:#0f284c;stroke-width:4.0837;stroke-linecap:round;stroke-linejoin:round;stroke-miterlimit:0;stroke-dasharray:none;stroke-opacity:1"
         d="m 193.34157,110.00527 -2.56961,-3.18141"
         id="path86" />
      <path
         style="fill:#0f284c;fill-opacity:1;stroke:#0f284c;stroke-width:4.0837;stroke-linecap:round;stroke-linejoin:round;stroke-miterlimit:0;stroke-dasharray:none;stroke-opacity:1"
         d="m 214.02077,59.347346 -1.83543,8.81007"
         id="path87" />
      <path
         style="fill:#0f284c;fill-opacity:1;stroke:#0f284c;stroke-width:4.0837;stroke-linecap:round;stroke-linejoin:round;stroke-miterlimit:0;stroke-dasharray:none;stroke-opacity:1"
         d="m 208.02503,58.980255 -3.18142,11.991501"
         id="path88" />
      <path
         style="fill:#0f284c;fill-opacity:1;stroke:#0f284c;stroke-width:4.0837;stroke-linecap:round;stroke-linejoin:round;stroke-miterlimit:0;stroke-dasharray:none;stroke-opacity:1"
         d="m 144.62372,62.088526 7.69448,0.13042"
         id="path89" />
      <path
         style="fill:#0f284c;fill-opacity:1;stroke:#0f284c;stroke-width:4.0837;stroke-linecap:round;stroke-linejoin:round;stroke-miterlimit:0;stroke-dasharray:none;stroke-opacity:1"
         d="m 144.88455,67.435546 h 3.65163"
         id="path90" />
      <path
         style="fill:#0f284c;fill-opacity:1;stroke:#0f284c;stroke-width:2.03767;stroke-linecap:round;stroke-linejoin:round;stroke-miterlimit:0;stroke-dasharray:none;stroke-opacity:1"
         d="m 139.82434,51.043927 2.31934,2.551277"
         id="path91" />
      <path
         style="fill:#0f284c;fill-opacity:1;stroke:#0f284c;stroke-width:2.03767;stroke-linecap:round;stroke-linejoin:round;stroke-miterlimit:0;stroke-dasharray:none;stroke-opacity:1"
         d="m 169.34513,134.79659 6.63579,-0.0819"
         id="path92" />
      <path
         style="fill:#0f284c;fill-opacity:1;stroke:#0f284c;stroke-width:4.0837;stroke-linecap:round;stroke-linejoin:round;stroke-miterlimit:0;stroke-dasharray:none;stroke-opacity:1"
         d="m 169.36822,129.88341 h 3.03115"
         id="path93" />
      <path
         style="fill:#0f284c;fill-opacity:1;stroke:#0f284c;stroke-width:4.0837;stroke-linecap:round;stroke-linejoin:round;stroke-miterlimit:0;stroke-dasharray:none;stroke-opacity:1"
         d="m 163.8456,147.90791 v 7.06801"
         id="path94" />
      <path
         style="fill:#0f284c;fill-opacity:1;stroke:#0f284c;stroke-width:4.0837;stroke-linecap:round;stroke-linejoin:round;stroke-miterlimit:0;stroke-dasharray:none;stroke-opacity:1"
         d="m 169.27676,150.85292 v 4.20715"
         id="path95" />
      <path
         style="fill:#0f284c;fill-opacity:1;stroke:#0f284c;stroke-width:4.0837;stroke-linecap:round;stroke-linejoin:round;stroke-miterlimit:0;stroke-dasharray:none;stroke-opacity:1"
         d="m 198.68853,159.10164 v 3.08716"
         id="path96" />
      <path
         style="fill:#0f284c;fill-opacity:1;stroke:#0f284c;stroke-width:4.0837;stroke-linecap:round;stroke-linejoin:round;stroke-miterlimit:0;stroke-dasharray:none;stroke-opacity:1"
         d="m 203.74274,157.67025 v 1.73653"
         id="path97" />
      <path
         style="fill:none;fill-opacity:1;stroke:#0f284c;stroke-width:7.03205;stroke-linecap:round;stroke-linejoin:round;stroke-miterlimit:0;stroke-dasharray:none;stroke-opacity:1"
         d="m 218.33201,66.107456 c 11.38291,-7.876861 21.2536,30.20805 -11.7361,35.061614"
         id="path98" />
      <path
         style="fill:none;fill-opacity:1;stroke:#0f284c;stroke-width:2.38137;stroke-linecap:round;stroke-linejoin:round;stroke-miterlimit:0;stroke-dasharray:none;stroke-opacity:1"
         id="path99"
         d="m 160.15717,96.995331 a 0.22705075,0.22705075 0 0 1 -0.22694,0.227051 0.22705075,0.22705075 0 0 1 -0.22717,-0.226821 0.22705075,0.22705075 0 0 1 0.22671,-0.227281 0.22705075,0.22705075 0 0 1 0.2274,0.22659" />
      <path
         style="fill:none;fill-opacity:1;stroke:#0f284c;stroke-width:1.31665;stroke-linecap:round;stroke-linejoin:round;stroke-miterlimit:0;stroke-dasharray:none;stroke-opacity:1"
         id="path100"
         d="m 157.39998,92.855301 a 0.06851573,0.16560453 0 0 1 -0.0685,0.165604 0.06851573,0.16560453 0 0 1 -0.0686,-0.165436 0.06851573,0.16560453 0 0 1 0.0684,-0.165772 0.06851573,0.16560453 0 0 1 0.0686,0.165268" />
      <rect
         style="fill:#0f284c;fill-opacity:1;stroke:#0f284c;stroke-width:0.0824215;stroke-linecap:round;stroke-linejoin:round;stroke-miterlimit:0;stroke-dasharray:none;stroke-opacity:1"
         id="rect100"
         width="1.9014072"
         height="2.0721965"
         x="63.95055"
         y="-219.84727"
         ry="0.98849732"
         rx="0.91950703"
         transform="matrix(-0.360468,0.93277158,-0.94171168,-0.33642104,0,0)" />
      <rect
         style="fill:#0f284c;fill-opacity:1;stroke:#0f284c;stroke-width:0.0732456;stroke-linecap:round;stroke-linejoin:round;stroke-miterlimit:0;stroke-dasharray:none;stroke-opacity:1"
         id="rect101"
         width="1.8604114"
         height="1.6725525"
         x="37.693768"
         y="-216.93765"
         ry="0.79785568"
         rx="0.89968181"
         transform="matrix(-0.28673126,0.95801106,-0.90805326,-0.41885471,0,0)" />
      <rect
         style="fill:#0f284c;fill-opacity:1;stroke:#0f284c;stroke-width:0.575586;stroke-linecap:round;stroke-linejoin:round;stroke-miterlimit:0;stroke-dasharray:none;stroke-opacity:1"
         id="rect102"
         width="1.4590154"
         height="1.6176924"
         x="62.244976"
         y="-223.80331"
         ry="0.77168572"
         rx="0.70556951"
         transform="matrix(-0.36765773,0.92996118,-0.94409279,-0.32967985,0,0)" />
      <path
         style="fill:none;fill-opacity:1;stroke:#0f284c;stroke-width:1.74246;stroke-linecap:round;stroke-linejoin:round;stroke-miterlimit:0;stroke-dasharray:none;stroke-opacity:1"
         id="path102"
         d="m 218.29373,54.024998 a 0.09048315,0.21962725 0 0 1 -0.0904,0.219627 0.09048315,0.21962725 0 0 1 -0.0905,-0.219405 0.09048315,0.21962725 0 0 1 0.0904,-0.219849 0.09048315,0.21962725 0 0 1 0.0906,0.219181" />
      <path
         style="fill:none;fill-opacity:1;stroke:#0f284c;stroke-width:0.854001;stroke-linecap:round;stroke-linejoin:round;stroke-miterlimit:0;stroke-dasharray:none;stroke-opacity:1"
         id="path103"
         d="m 219.5233,51.578075 a 0.04584187,0.10413121 0 0 1 -0.0458,0.104132 0.04584187,0.10413121 0 0 1 -0.0459,-0.104026 0.04584187,0.10413121 0 0 1 0.0458,-0.104237 0.04584187,0.10413121 0 0 1 0.0459,0.10392" />
      <path
         style="fill:none;fill-opacity:1;stroke:#0f284c;stroke-width:2.38137;stroke-linecap:round;stroke-linejoin:round;stroke-miterlimit:0;stroke-dasharray:none;stroke-opacity:1"
         id="path45"
         d="m 165.77963,247.17429 a 0.22705075,0.22705075 0 0 1 -0.22693,0.22705 0.22705075,0.22705075 0 0 1 -0.22717,-0.22682 0.22705075,0.22705075 0 0 1 0.22671,-0.22728 0.22705075,0.22705075 0 0 1 0.22739,0.22659" />
      <path
         style="fill:none;fill-opacity:1;stroke:#0f284c;stroke-width:1.31665;stroke-linecap:round;stroke-linejoin:round;stroke-miterlimit:0;stroke-dasharray:none;stroke-opacity:1"
         id="path46"
         d="m 163.02245,243.03426 a 0.06851573,0.16560453 0 0 1 -0.0685,0.1656 0.06851573,0.16560453 0 0 1 -0.0685,-0.16544 0.06851573,0.16560453 0 0 1 0.0684,-0.16577 0.06851573,0.16560453 0 0 1 0.0686,0.16527" />
      <rect
         style="fill:#0f284c;fill-opacity:1;stroke:#0f284c;stroke-width:0.0824215;stroke-linecap:round;stroke-linejoin:round;stroke-miterlimit:0;stroke-dasharray:none;stroke-opacity:1"
         id="rect49"
         width="1.9014072"
         height="2.0721965"
         x="122.469"
         y="-284.60843"
         ry="0.98849732"
         rx="0.91950703"
         transform="matrix(-0.360468,0.93277158,-0.94171168,-0.33642104,0,0)" />
      <rect
         style="fill:#0f284c;fill-opacity:1;stroke:#0f284c;stroke-width:0.0732456;stroke-linecap:round;stroke-linejoin:round;stroke-miterlimit:0;stroke-dasharray:none;stroke-opacity:1"
         id="rect50"
         width="1.8604114"
         height="1.6725525"
         x="94.789963"
         y="-272.96667"
         ry="0.79785568"
         rx="0.89968181"
         transform="matrix(-0.28673126,0.95801106,-0.90805326,-0.41885471,0,0)" />
      <rect
         style="fill:#0f284c;fill-opacity:1;stroke:#0f284c;stroke-width:0.575586;stroke-linecap:round;stroke-linejoin:round;stroke-miterlimit:0;stroke-dasharray:none;stroke-opacity:1"
         id="rect51"
         width="1.4590154"
         height="1.6176924"
         x="119.48861"
         y="-285.81467"
         ry="0.77168572"
         rx="0.70556951"
         transform="matrix(-0.36765773,0.92996118,-0.94409279,-0.32967985,0,0)" />
      <rect
         style="fill:#0f284c;fill-opacity:1;stroke:#0f284c;stroke-width:0.0824215;stroke-linecap:round;stroke-linejoin:round;stroke-miterlimit:0;stroke-dasharray:none;stroke-opacity:1"
         id="rect52"
         width="1.9014072"
         height="2.0721965"
         x="242.05435"
         y="-248.3344"
         ry="0.98849732"
         rx="0.91950703"
         transform="matrix(-0.360468,0.93277158,-0.94171168,-0.33642104,0,0)" />
    </g>
    <path
       style="fill:none;fill-opacity:0.398077;stroke:#0f284c;stroke-width:5.79897;stroke-linecap:round;stroke-linejoin:round;stroke-miterlimit:0;stroke-dasharray:none"
       d="m 112.6003,326.79932 27.84986,0.17865 19.81624,-28.40497 19.99478,28.40497 26.24313,-0.17865 -31.24182,-48.59217 28.921,-44.30463 -25.70756,-0.53596 -18.20953,23.93881 -17.67394,-24.29609 -26.06461,0.53593 28.74248,45.19788 z"
       id="path27" />
    <path
       style="fill:none;fill-opacity:0.398077;stroke:#0f284c;stroke-width:3;stroke-linecap:round;stroke-linejoin:round;stroke-miterlimit:0;stroke-dasharray:none"
       d="m 125.94683,242.99341 9.40403,-0.58775"
       id="path28" />
    <path
       style="fill:none;fill-opacity:0.398077;stroke:#0f284c;stroke-width:3;stroke-linecap:round;stroke-linejoin:round;stroke-miterlimit:0;stroke-dasharray:none"
       d="m 128.23277,247.5536 4.621,-0.4951"
       id="path29" />
    <path
       style="fill:none;fill-opacity:0.398077;stroke:#0f284c;stroke-width:2.63298;stroke-linecap:round;stroke-linejoin:round;stroke-miterlimit:0;stroke-dasharray:none"
       d="m 121.92321,321.95058 v 3.14034"
       id="path30" />
    <path
       style="fill:none;fill-opacity:0.398077;stroke:#0f284c;stroke-width:2.85222;stroke-linecap:round;stroke-linejoin:round;stroke-miterlimit:0;stroke-dasharray:none"
       d="m 126.25486,316.79988 v 8.98242"
       id="path31" />
    <path
       style="fill:none;fill-opacity:0.398077;stroke:#0f284c;stroke-width:3;stroke-linecap:round;stroke-linejoin:round;stroke-miterlimit:0;stroke-dasharray:none"
       d="m 200.31321,321.59958 h -7.93319"
       id="path33" />
    <path
       style="fill:none;fill-opacity:0.398077;stroke:#0f284c;stroke-width:3;stroke-linecap:round;stroke-linejoin:round;stroke-miterlimit:0;stroke-dasharray:none"
       d="M 197.71967,316.87018 H 194.821"
       id="path36" />
    <path
       style="fill:none;fill-opacity:0.398077;stroke:#0f284c;stroke-width:3;stroke-linecap:round;stroke-linejoin:round;stroke-miterlimit:0;stroke-dasharray:none"
       d="m 180.10716,236.53105 0.13215,6.87129"
       id="path41" />
    <path
       style="fill:none;fill-opacity:0.398077;stroke:#0f284c;stroke-width:3;stroke-linecap:round;stroke-linejoin:round;stroke-miterlimit:0;stroke-dasharray:none"
       d="m 185.26063,236.26677 0.13214,3.30351"
       id="path42" />
  </g>
</svg>
