<?xml version="1.0" encoding="UTF-8" standalone="no"?>
<!-- Created with Inkscape (http://www.inkscape.org/) -->

<svg
   width="80.901413mm"
   height="102.65318mm"
   viewBox="0 0 80.901413 102.65318"
   version="1.1"
   id="svg1"
   xmlns="http://www.w3.org/2000/svg"
   xmlns:svg="http://www.w3.org/2000/svg">
  <defs
     id="defs1" />
  <g
     id="layer1"
     transform="translate(-118.8666,-113.61276)">
    <rect
       style="display:none;fill:#0f284c;fill-opacity:0.398077;stroke:#0f284c;stroke-width:0.0839057;stroke-linecap:round;stroke-linejoin:round;stroke-miterlimit:0"
       id="rect4"
       width="99.916092"
       height="99.916092"
       x="107.5536"
       y="115.66267" />
    <g
       id="g6"
       transform="matrix(0.78213295,0,0,0.78213295,17.822109,78.382697)">
      <path
         id="path79"
         style="fill:none;fill-opacity:1;stroke:#0f284c;stroke-width:7.03205;stroke-linecap:round;stroke-linejoin:round;stroke-miterlimit:0;stroke-dasharray:none;stroke-opacity:1"
         d="m 142.99867,57.540396 a 37.973245,59.123354 0 0 0 24.29075,53.625974 c 0.97623,9.24803 1.42148,18.53691 1.06229,27.88766 h -9.23476 v 17.15392 a 38.727282,34.898729 0 0 0 -13.4387,16.56733 h 73.07108 a 38.727282,34.898729 0 0 0 -15.14765,-17.64015 v -16.0811 h -10.30636 c -0.67982,-9.18087 -0.42181,-18.30285 0.45279,-27.38656 a 37.973245,59.123354 0 0 0 25.07678,-54.127074 z" />
      <rect
         style="fill:none;fill-opacity:1;stroke:#0f284c;stroke-width:7.03205;stroke-linecap:round;stroke-linejoin:round;stroke-miterlimit:0;stroke-dasharray:none;stroke-opacity:1"
         id="rect82"
         width="88.258812"
         height="9.0119295"
         x="136.84653"
         y="48.559605"
         ry="4.5059648"
         rx="6.4962125" />
      <path
         style="fill:none;fill-opacity:1;stroke:#0f284c;stroke-width:7.03205;stroke-linecap:round;stroke-linejoin:round;stroke-miterlimit:0;stroke-dasharray:none;stroke-opacity:1"
         d="m 143.48679,65.818826 c -11.38291,-7.876858 -21.2536,30.20805 11.7361,35.061614"
         id="path83" />
      <path
         style="fill:none;fill-opacity:1;stroke:#0f284c;stroke-width:7.03205;stroke-linecap:round;stroke-linejoin:round;stroke-miterlimit:0;stroke-dasharray:none;stroke-opacity:1"
         d="m 159.44637,156.11709 44.55027,-0.25648"
         id="path84" />
      <path
         style="fill:none;fill-opacity:1;stroke:#0f284c;stroke-width:7.03205;stroke-linecap:round;stroke-linejoin:round;stroke-miterlimit:0;stroke-dasharray:none;stroke-opacity:1"
         d="m 167.5991,139.00499 28.91752,0.13502"
         id="path85" />
      <text
         xml:space="preserve"
         style="font-style:normal;font-variant:normal;font-weight:bold;font-stretch:normal;font-size:46.3966px;line-height:40.514px;font-family:'hyper';-inkscape-font-specification:'Atkinson Hyperlegible Mono Bold';letter-spacing:1.3194px;fill:#0f284c;fill-opacity:1;stroke:#0f284c;stroke-width:2.73996;stroke-linecap:round;stroke-linejoin:round;stroke-miterlimit:0;stroke-dasharray:none;stroke-opacity:1"
         x="173.80046"
         y="95.311699"
         id="text85"
         transform="scale(0.96137336,1.0401786)"><tspan
           id="tspan85"
           style="fill:#0f284c;fill-opacity:1;stroke-width:2.73996"
           x="173.80046"
           y="95.311699">1</tspan></text>
      <path
         style="fill:#0f284c;fill-opacity:1;stroke:#0f284c;stroke-width:4.0837;stroke-linecap:round;stroke-linejoin:round;stroke-miterlimit:0;stroke-dasharray:none;stroke-opacity:1"
         d="m 193.34157,110.00527 -2.56961,-3.18141"
         id="path86" />
      <path
         style="fill:#0f284c;fill-opacity:1;stroke:#0f284c;stroke-width:4.0837;stroke-linecap:round;stroke-linejoin:round;stroke-miterlimit:0;stroke-dasharray:none;stroke-opacity:1"
         d="m 214.02077,59.347346 -1.83543,8.81007"
         id="path87" />
      <path
         style="fill:#0f284c;fill-opacity:1;stroke:#0f284c;stroke-width:4.0837;stroke-linecap:round;stroke-linejoin:round;stroke-miterlimit:0;stroke-dasharray:none;stroke-opacity:1"
         d="m 208.02503,58.980255 -3.18142,11.991501"
         id="path88" />
      <path
         style="fill:#0f284c;fill-opacity:1;stroke:#0f284c;stroke-width:4.0837;stroke-linecap:round;stroke-linejoin:round;stroke-miterlimit:0;stroke-dasharray:none;stroke-opacity:1"
         d="m 144.62372,62.088526 7.69448,0.13042"
         id="path89" />
      <path
         style="fill:#0f284c;fill-opacity:1;stroke:#0f284c;stroke-width:4.0837;stroke-linecap:round;stroke-linejoin:round;stroke-miterlimit:0;stroke-dasharray:none;stroke-opacity:1"
         d="m 144.88455,67.435546 h 3.65163"
         id="path90" />
      <path
         style="fill:#0f284c;fill-opacity:1;stroke:#0f284c;stroke-width:2.03767;stroke-linecap:round;stroke-linejoin:round;stroke-miterlimit:0;stroke-dasharray:none;stroke-opacity:1"
         d="m 139.82434,51.043927 2.31934,2.551277"
         id="path91" />
      <path
         style="fill:#0f284c;fill-opacity:1;stroke:#0f284c;stroke-width:2.03767;stroke-linecap:round;stroke-linejoin:round;stroke-miterlimit:0;stroke-dasharray:none;stroke-opacity:1"
         d="m 169.34513,134.79659 6.63579,-0.0819"
         id="path92" />
      <path
         style="fill:#0f284c;fill-opacity:1;stroke:#0f284c;stroke-width:4.0837;stroke-linecap:round;stroke-linejoin:round;stroke-miterlimit:0;stroke-dasharray:none;stroke-opacity:1"
         d="m 169.36822,129.88341 h 3.03115"
         id="path93" />
      <path
         style="fill:#0f284c;fill-opacity:1;stroke:#0f284c;stroke-width:4.0837;stroke-linecap:round;stroke-linejoin:round;stroke-miterlimit:0;stroke-dasharray:none;stroke-opacity:1"
         d="m 163.8456,147.90791 v 7.06801"
         id="path94" />
      <path
         style="fill:#0f284c;fill-opacity:1;stroke:#0f284c;stroke-width:4.0837;stroke-linecap:round;stroke-linejoin:round;stroke-miterlimit:0;stroke-dasharray:none;stroke-opacity:1"
         d="m 169.27676,150.85292 v 4.20715"
         id="path95" />
      <path
         style="fill:#0f284c;fill-opacity:1;stroke:#0f284c;stroke-width:4.0837;stroke-linecap:round;stroke-linejoin:round;stroke-miterlimit:0;stroke-dasharray:none;stroke-opacity:1"
         d="m 198.68853,159.10164 v 3.08716"
         id="path96" />
      <path
         style="fill:#0f284c;fill-opacity:1;stroke:#0f284c;stroke-width:4.0837;stroke-linecap:round;stroke-linejoin:round;stroke-miterlimit:0;stroke-dasharray:none;stroke-opacity:1"
         d="m 203.74274,157.67025 v 1.73653"
         id="path97" />
      <path
         style="fill:none;fill-opacity:1;stroke:#0f284c;stroke-width:7.03205;stroke-linecap:round;stroke-linejoin:round;stroke-miterlimit:0;stroke-dasharray:none;stroke-opacity:1"
         d="m 218.33201,66.107456 c 11.38291,-7.876861 21.2536,30.20805 -11.7361,35.061614"
         id="path98" />
      <path
         style="fill:none;fill-opacity:1;stroke:#0f284c;stroke-width:2.38137;stroke-linecap:round;stroke-linejoin:round;stroke-miterlimit:0;stroke-dasharray:none;stroke-opacity:1"
         id="path99"
         d="m 160.15717,96.995331 a 0.22705075,0.22705075 0 0 1 -0.22694,0.227051 0.22705075,0.22705075 0 0 1 -0.22717,-0.226821 0.22705075,0.22705075 0 0 1 0.22671,-0.227281 0.22705075,0.22705075 0 0 1 0.2274,0.22659" />
      <path
         style="fill:none;fill-opacity:1;stroke:#0f284c;stroke-width:1.31665;stroke-linecap:round;stroke-linejoin:round;stroke-miterlimit:0;stroke-dasharray:none;stroke-opacity:1"
         id="path100"
         d="m 157.39998,92.855301 a 0.06851573,0.16560453 0 0 1 -0.0685,0.165604 0.06851573,0.16560453 0 0 1 -0.0686,-0.165436 0.06851573,0.16560453 0 0 1 0.0684,-0.165772 0.06851573,0.16560453 0 0 1 0.0686,0.165268" />
      <rect
         style="fill:#0f284c;fill-opacity:1;stroke:#0f284c;stroke-width:0.0824215;stroke-linecap:round;stroke-linejoin:round;stroke-miterlimit:0;stroke-dasharray:none;stroke-opacity:1"
         id="rect100"
         width="1.9014072"
         height="2.0721965"
         x="63.95055"
         y="-219.84727"
         ry="0.98849732"
         rx="0.91950703"
         transform="matrix(-0.360468,0.93277158,-0.94171168,-0.33642104,0,0)" />
      <rect
         style="fill:#0f284c;fill-opacity:1;stroke:#0f284c;stroke-width:0.0732456;stroke-linecap:round;stroke-linejoin:round;stroke-miterlimit:0;stroke-dasharray:none;stroke-opacity:1"
         id="rect101"
         width="1.8604114"
         height="1.6725525"
         x="37.693768"
         y="-216.93765"
         ry="0.79785568"
         rx="0.89968181"
         transform="matrix(-0.28673126,0.95801106,-0.90805326,-0.41885471,0,0)" />
      <rect
         style="fill:#0f284c;fill-opacity:1;stroke:#0f284c;stroke-width:0.575586;stroke-linecap:round;stroke-linejoin:round;stroke-miterlimit:0;stroke-dasharray:none;stroke-opacity:1"
         id="rect102"
         width="1.4590154"
         height="1.6176924"
         x="62.244976"
         y="-223.80331"
         ry="0.77168572"
         rx="0.70556951"
         transform="matrix(-0.36765773,0.92996118,-0.94409279,-0.32967985,0,0)" />
      <path
         style="fill:none;fill-opacity:1;stroke:#0f284c;stroke-width:1.74246;stroke-linecap:round;stroke-linejoin:round;stroke-miterlimit:0;stroke-dasharray:none;stroke-opacity:1"
         id="path102"
         d="m 218.29373,54.024998 a 0.09048315,0.21962725 0 0 1 -0.0904,0.219627 0.09048315,0.21962725 0 0 1 -0.0905,-0.219405 0.09048315,0.21962725 0 0 1 0.0904,-0.219849 0.09048315,0.21962725 0 0 1 0.0906,0.219181" />
      <path
         style="fill:none;fill-opacity:1;stroke:#0f284c;stroke-width:0.854001;stroke-linecap:round;stroke-linejoin:round;stroke-miterlimit:0;stroke-dasharray:none;stroke-opacity:1"
         id="path103"
         d="m 219.5233,51.578075 a 0.04584187,0.10413121 0 0 1 -0.0458,0.104132 0.04584187,0.10413121 0 0 1 -0.0459,-0.104026 0.04584187,0.10413121 0 0 1 0.0458,-0.104237 0.04584187,0.10413121 0 0 1 0.0459,0.10392" />
    </g>
  </g>
</svg>
