<?xml version="1.0" encoding="UTF-8" standalone="no"?>
<!-- Created with Inkscape (http://www.inkscape.org/) -->

<svg
   width="88.250618mm"
   height="89.390785mm"
   viewBox="0 0 88.250618 89.390785"
   version="1.1"
   id="svg1"
   xmlns="http://www.w3.org/2000/svg"
   xmlns:svg="http://www.w3.org/2000/svg">
  <defs
     id="defs1" />
  <g
     id="layer1"
     transform="translate(-1.5779035,-1.2036475)">
    <path
       id="path23"
       style="fill:none;stroke:#0f284c;stroke-width:3.50104;stroke-linecap:round;stroke-linejoin:round;stroke-miterlimit:0"
       d="M 43.963784,2.9623451 C 27.615312,2.6267751 12.40682,12.597015 6.5888045,29.108035 l -0.912089,2.58848 c -7.4470611,21.13412 3.395209,44.74509 24.3101445,52.9394 l 3.635953,1.424716 c 20.914935,8.19431 43.747745,-2.223106 51.194812,-23.357226 l 0.91209,-2.58847 c 7.447052,-21.13412 -3.39521,-44.7451 -24.310149,-52.9394099 l -3.635953,-1.42472 c -4.575143,-1.79249 -9.242256,-2.6945 -13.819829,-2.78846 z" />
    <rect
       style="fill:none;stroke:#0f284c;stroke-width:2.74477;stroke-linecap:round;stroke-linejoin:round;stroke-miterlimit:0;stroke-dasharray:none;stroke-opacity:1"
       id="rect6"
       width="6.2349854"
       height="0.072907232"
       x="-2.2639413"
       y="-70.882797"
       transform="matrix(-0.60497551,0.79624408,-0.97856624,-0.20593232,0,0)" />
    <rect
       style="fill:none;stroke:#0f284c;stroke-width:3.123;stroke-linecap:round;stroke-linejoin:round;stroke-miterlimit:0;stroke-dasharray:none;stroke-opacity:1"
       id="rect7"
       width="7.0391002"
       height="0.08360301"
       x="-2.5315039"
       y="-63.764076"
       transform="matrix(-0.47218678,0.88149852,-0.98521631,-0.17131501,0,0)" />
    <rect
       style="fill:none;stroke:#0f284c;stroke-width:3.05878;stroke-linecap:round;stroke-linejoin:round;stroke-miterlimit:0;stroke-dasharray:none;stroke-opacity:1"
       id="rect8"
       width="6.471385"
       height="0.087235928"
       x="-1.4941834"
       y="-56.966042"
       transform="matrix(-0.48976485,0.87185457,-0.99075466,-0.13566581,0,0)" />
    <rect
       style="fill:none;stroke:#0f284c;stroke-width:2.94888;stroke-linecap:round;stroke-linejoin:round;stroke-miterlimit:0;stroke-dasharray:none;stroke-opacity:1"
       id="rect9"
       width="5.3566918"
       height="0.097951867"
       x="1.1042176"
       y="-50.14941"
       transform="matrix(-0.4947227,0.86905089,-0.99727678,-0.07374972,0,0)" />
    <rect
       style="fill:#0f284c;fill-opacity:1;stroke:#0f284c;stroke-width:0.134954;stroke-linecap:round;stroke-linejoin:round;stroke-miterlimit:0;stroke-dasharray:none;stroke-opacity:1"
       id="rect12"
       width="4.0516696"
       height="2.6071308"
       x="-76.683464"
       y="-68.901917"
       ry="1.2436763"
       rx="1.9593587"
       transform="matrix(-0.76421823,0.64495775,-0.23589233,-0.9717792,0,0)" />
    <rect
       style="fill:#0f284c;fill-opacity:1;stroke:#0f284c;stroke-width:0.0843626;stroke-linecap:round;stroke-linejoin:round;stroke-miterlimit:0;stroke-dasharray:none;stroke-opacity:1"
       id="rect13"
       width="2.0144744"
       height="2.0491021"
       x="-13.481956"
       y="-47.842865"
       ry="0.97748059"
       rx="0.97418553"
       transform="matrix(-0.33270253,0.94303183,-0.93123931,-0.36440821,0,0)" />
    <rect
       style="fill:#0f284c;fill-opacity:1;stroke:#0f284c;stroke-width:0.0687631;stroke-linecap:round;stroke-linejoin:round;stroke-miterlimit:0;stroke-dasharray:none;stroke-opacity:1"
       id="rect14"
       width="1.5863172"
       height="1.7288043"
       x="44.139988"
       y="-86.284798"
       ry="0.82468933"
       rx="0.76713175"
       transform="matrix(-0.360468,0.93277158,-0.94171168,-0.33642104,0,0)" />
    <rect
       style="fill:#0f284c;fill-opacity:1;stroke:#0f284c;stroke-width:0.0611078;stroke-linecap:round;stroke-linejoin:round;stroke-miterlimit:0;stroke-dasharray:none;stroke-opacity:1"
       id="rect15"
       width="1.552115"
       height="1.3953869"
       x="27.268408"
       y="-86.005913"
       ry="0.6656397"
       rx="0.75059181"
       transform="matrix(-0.28673126,0.95801106,-0.90805326,-0.41885471,0,0)" />
    <rect
       style="fill:#0f284c;fill-opacity:1;stroke:#0f284c;stroke-width:0.0532206;stroke-linecap:round;stroke-linejoin:round;stroke-miterlimit:0;stroke-dasharray:none;stroke-opacity:1"
       id="rect16"
       width="1.2172359"
       height="1.3496178"
       x="41.984623"
       y="-91.935539"
       ry="0.64380652"
       rx="0.58864665"
       transform="matrix(-0.36765773,0.92996118,-0.94409279,-0.32967985,0,0)" />
    <rect
       style="fill:none;stroke:#0f284c;stroke-width:2.49321;stroke-linecap:round;stroke-linejoin:round;stroke-miterlimit:0;stroke-dasharray:none;stroke-opacity:1"
       id="rect17"
       width="6.5096154"
       height="0.057617906"
       x="-53.760197"
       y="71.296913"
       transform="matrix(0.90872994,-0.41738458,0.80923193,0.5874893,0,0)" />
    <rect
       style="fill:none;stroke:#0f284c;stroke-width:2.23907;stroke-linecap:round;stroke-linejoin:round;stroke-miterlimit:0;stroke-dasharray:none;stroke-opacity:1"
       id="rect18"
       width="5.4491596"
       height="0.0555139"
       x="-49.103954"
       y="67.139153"
       transform="matrix(0.82200881,-0.56947478,0.78650548,0.6175833,0,0)" />
    <rect
       style="fill:none;stroke:#0f284c;stroke-width:2.37434;stroke-linecap:round;stroke-linejoin:round;stroke-miterlimit:0;stroke-dasharray:none;stroke-opacity:1"
       id="rect19"
       width="5.3397403"
       height="0.063703589"
       x="-54.252151"
       y="77.296837"
       transform="matrix(0.83761328,-0.54626367,0.81337053,0.58174597,0,0)" />
    <rect
       style="fill:none;stroke:#0f284c;stroke-width:2.45116;stroke-linecap:round;stroke-linejoin:round;stroke-miterlimit:0;stroke-dasharray:none;stroke-opacity:1"
       id="rect20"
       width="4.7951899"
       height="0.075602122"
       x="-53.69606"
       y="79.749367"
       transform="matrix(0.79444269,-0.60733913,0.81431435,0.5804241,0,0)" />
    <rect
       style="fill:#0f284c;fill-opacity:1;stroke:#0f284c;stroke-width:0.128668;stroke-linecap:round;stroke-linejoin:round;stroke-miterlimit:0;stroke-dasharray:none;stroke-opacity:1"
       id="rect21"
       width="3.1793985"
       height="3.0200942"
       x="-64.657448"
       y="42.987213"
       ry="1.4406717"
       rx="1.5375346"
       transform="matrix(0.57267568,-0.81978202,0.98467254,0.17441328,0,0)" />
    <rect
       style="fill:#0f284c;fill-opacity:1;stroke:#0f284c;stroke-width:0.110104;stroke-linecap:round;stroke-linejoin:round;stroke-miterlimit:0;stroke-dasharray:none;stroke-opacity:1"
       id="rect22"
       width="2.5497577"
       height="2.757585"
       x="58.355522"
       y="92.315132"
       ry="1.3154473"
       rx="1.2330449"
       transform="matrix(0.99379441,-0.1112325,-0.33868287,0.94090059,0,0)" />
    <text
       xml:space="preserve"
       style="font-style:normal;font-variant:normal;font-weight:bold;font-stretch:normal;font-size:25.4px;line-height:22.1796px;font-family:'Atkinson Hyperlegible Mono';-inkscape-font-specification:'Atkinson Hyperlegible Mono Bold';letter-spacing:1.44463px;fill:#0f284c;fill-opacity:1;stroke:none;stroke-width:3.49999;stroke-linecap:round;stroke-linejoin:round;stroke-miterlimit:0;stroke-dasharray:none;stroke-opacity:1"
       x="27.998371"
       y="63.536541"
       id="text26"><tspan
         style="font-style:normal;font-variant:normal;font-weight:bold;font-stretch:normal;font-size:50.8px;line-height:22.1796px;font-family:'hyper';-inkscape-font-specification:'Atkinson Hyperlegible Mono Bold';fill:#0f284c;fill-opacity:1;stroke:none;stroke-width:3.5"
         x="27.998371"
         y="63.536541"
         id="tspan1">X</tspan><tspan
         style="font-style:normal;font-variant:normal;font-weight:bold;font-stretch:normal;font-size:25.4px;line-height:22.1796px;font-family:'Atkinson Hyperlegible Mono';-inkscape-font-specification:'Atkinson Hyperlegible Mono Bold';fill:#0f284c;fill-opacity:1;stroke:none;stroke-width:3.5"
         x="27.998371"
         y="85.716141"
         id="tspan27" /></text>
  </g>
</svg>
